# xmcd
#
# Track frame offsets:
#	175
#	16457
#	36157
#	54605
#	71942
#	89315
#	108825
#	120627
#	133985
#	151865
#	172365
#	186702
#	199482
#
# Disc length: 2846
#
# Revision: 1
# Processed by: cddbd v1.5.1PL0 Copyright (c) Steve Scherf et al.
# Submitted via: dBpowerAMP V4.0
# Normalized: r0:TRMNUM
#
DISCID=c90b1c0d
DTITLE=Jack de Keyzer - Hard Woring Man
DYEAR=1991
DGENRE=Blues
TTITLE0=That's The Way
TTITLE1=Hard Working Man
TTITLE2=Burning Up
TTITLE3=Outlaw Lover
TTITLE4=Nothing In The World
TTITLE5=Double Life
TTITLE6=Long Legged Woman
TTITLE7=Losing Streak
TTITLE8=Johnny Don't Play
TTITLE9=Wanted Man
TTITLE10=Wash My Blues Away
TTITLE11=Out Of This World
TTITLE12=Blue Train
EXTD=
EXTT0=
EXTT1=
EXTT2=
EXTT3=
EXTT4=
EXTT5=
EXTT6=
EXTT7=
EXTT8=
EXTT9=
EXTT10=
EXTT11=
EXTT12=
PLAYORDER=
